<svg xmlns="http://www.w3.org/2000/svg" viewBox="0 0 256 256" width="256" height="256" fill="none">
  <g stroke-linecap="round">
    <!-- tick dial -->
    <g stroke="#a8a6a0" stroke-width="1" opacity="0.45">
      <path d="M128 182 V174" transform="rotate(0 128 128)"/>
      <path d="M128 182 V174" transform="rotate(20 128 128)"/>
      <path d="M128 182 V174" transform="rotate(40 128 128)"/>
      <path d="M128 182 V174" transform="rotate(60 128 128)"/>
      <path d="M128 182 V174" transform="rotate(80 128 128)"/>
      <path d="M128 182 V174" transform="rotate(100 128 128)"/>
      <path d="M128 182 V174" transform="rotate(120 128 128)"/>
      <path d="M128 182 V174" transform="rotate(140 128 128)"/>
      <path d="M128 182 V174" transform="rotate(160 128 128)"/>
      <path d="M128 182 V174" transform="rotate(180 128 128)"/>
      <path d="M128 182 V174" transform="rotate(200 128 128)"/>
      <path d="M128 182 V174" transform="rotate(220 128 128)"/>
      <path d="M128 182 V174" transform="rotate(240 128 128)"/>
      <path d="M128 182 V174" transform="rotate(260 128 128)"/>
      <path d="M128 182 V174" transform="rotate(280 128 128)"/>
      <path d="M128 182 V174" transform="rotate(300 128 128)"/>
      <path d="M128 182 V174" transform="rotate(320 128 128)"/>
      <path d="M128 182 V174" transform="rotate(340 128 128)"/>
    </g>
    <g stroke="#a8a6a0" stroke-width="1.4" opacity="0.7">
      <path d="M128 188 V174"/>
      <path d="M128 188 V174" transform="rotate(90 128 128)"/>
      <path d="M128 188 V174" transform="rotate(180 128 128)"/>
      <path d="M128 188 V174" transform="rotate(270 128 128)"/>
    </g>

    <!-- inner guide ring -->
    <circle cx="128" cy="128" r="47" stroke="#a8a6a0" stroke-width="1" opacity="0.3"/>

    <!-- macro arcs -->
    <path d="M128 64 A64 64 0 0 1 164.7 180.4" stroke="#a8a6a0" stroke-width="4.5"/>
    <path d="M157.05 185.02 A64 64 0 0 1 64.04 130.23" stroke="#a8a6a0" stroke-width="4.5" opacity="0.5"/>
    <path d="M64.35 121.31 A64 64 0 0 1 119.09 64.62" stroke="#cf8b5c" stroke-width="4.5"/>

    <!-- centre mark -->
    <circle cx="128" cy="128" r="5.5" fill="#f2f1ee" stroke="#a8a6a0" stroke-width="1.3"/>
  </g>
</svg>
